<?xml version="1.0" standalone="no"?><svg xmlns:xlink="http://www.w3.org/1999/xlink" xmlns="http://www.w3.org/2000/svg" viewBox="0 0 1000 562.5027423105612" preserveAspectRatio="xMaxYMax slice"><g transform="scale(0.8775393795796587)"><rect x="0" y="0" width="1139.5555555555557" height="641" fill="#fffafa"/><rect x="0" y="0" width="71.22222222222223" height="71.22222222222223" fill="#fffafa"/><rect x="0" y="0" width="35.61" height="35.61" fill="#b0cfe7"/><polygon points="0,0 35.61,0 35.61,35.61" fill="#bfd8ea"/><rect x="35.61" y="0" width="35.61" height="35.61" fill="#fcf9fa"/><polygon points="35.61,0 71.22,35.61 35.61,35.61" fill="#c4cefd"/><rect x="0" y="35.61" width="35.61" height="35.61" fill="#c3cefd"/><polygon points="35.61,35.61 35.61,71.22 0,71.22" fill="#aecfe6"/><rect x="35.61" y="35.61" width="35.61" height="35.61" fill="#e3f3fb"/><polygon points="35.61,35.61 71.22,71.22 35.61,71.22" fill="#efeefb"/><rect x="71.22222222222223" y="0" width="71.22222222222223" height="71.22222222222223" fill="#fffafa"/><rect x="71.22" y="0" width="35.61" height="35.61" fill="#f8f6f8"/><polygon points="71.22,0 106.83,35.61 71.22,35.61" fill="#7fd9fe"/><rect x="106.83" y="0" width="35.61" height="35.61" fill="#adbdff"/><polygon points="106.83,0 142.44,0 106.83,35.61" fill="#fdfafa"/><rect x="71.22" y="35.61" width="35.61" height="35.61" fill="#f4f7fa"/><polygon points="71.22,35.61 106.83,35.61 71.22,71.22" fill="#d1e1ef"/><rect x="106.83" y="35.61" width="35.61" height="35.61" fill="#82dafe"/><polygon points="142.44,35.61 142.44,71.22 106.83,71.22" fill="#dde1fc"/><rect x="142.44444444444446" y="0" width="71.22222222222223" height="71.22222222222223" fill="#fffafa"/><rect x="142.44" y="0" width="35.61" height="35.61" fill="#d3e2ef"/><polygon points="178.05,0 178.05,35.61 142.44,35.61" fill="#cfe0ee"/><rect x="178.06" y="0" width="35.61" height="35.61" fill="#c0eafc"/><polygon points="178.06,0 213.67000000000002,35.61 178.06,35.61" fill="#bfcafe"/><rect x="142.44" y="35.61" width="35.61" height="35.61" fill="#dee8f2"/><polygon points="142.44,35.61 178.05,35.61 178.05,71.22" fill="#c8d1fd"/><rect x="178.06" y="35.61" width="35.61" height="35.61" fill="#94dffd"/><polygon points="178.06,35.61 213.67000000000002,71.22 178.06,71.22" fill="#e3f3fb"/><rect x="213.66666666666669" y="0" width="71.22222222222223" height="71.22222222222223" fill="#fffafa"/><rect x="213.67" y="0" width="35.61" height="35.61" fill="#f0f6fa"/><polygon points="213.67,0 249.27999999999997,35.61 213.67,35.61" fill="#fefafa"/><rect x="249.28" y="0" width="35.61" height="35.61" fill="#cad2fd"/><polygon points="249.28,0 284.89,0 284.89,35.61" fill="#e2eaf3"/><rect x="213.67" y="35.61" width="35.61" height="35.61" fill="#f4f4f7"/><polygon points="249.27999999999997,35.61 249.27999999999997,71.22 213.67,71.22" fill="#c6dbec"/><rect x="249.28" y="35.61" width="35.61" height="35.61" fill="#bdc9fe"/><polygon points="284.89,35.61 284.89,71.22 249.28,71.22" fill="#c5dbec"/><rect x="284.89" y="0" width="71.22" height="71.22" fill="#e3ebf3"/><polygon points="284.89,0 356.11,0 284.89,71.22" fill="#f6f4fb"/><rect x="356.11" y="0" width="71.22" height="71.22" fill="#e5ecf4"/><polygon points="356.11,0 427.33000000000004,71.22 356.11,71.22" fill="#f4f2fb"/><rect x="427.33" y="0" width="71.22" height="71.22" fill="#b3d1e8"/><polygon points="427.33,0 498.54999999999995,0 427.33,71.22" fill="#cbdeed"/><rect x="498.5555555555556" y="0" width="71.22222222222223" height="71.22222222222223" fill="#fffafa"/><rect x="498.56" y="0" width="35.61" height="35.61" fill="#bce9fc"/><polygon points="534.17,0 534.17,35.61 498.56,35.61" fill="#bac7fe"/><rect x="534.17" y="0" width="35.61" height="35.61" fill="#eaeff5"/><polygon points="569.78,0 569.78,35.61 534.17,35.61" fill="#dce0fc"/><rect x="498.56" y="35.61" width="35.61" height="35.61" fill="#e6ecf4"/><polygon points="498.56,35.61 534.17,71.22 498.56,71.22" fill="#a6e3fd"/><rect x="534.17" y="35.61" width="35.61" height="35.61" fill="#e4e6fc"/><polygon points="534.17,35.61 569.78,35.61 534.17,71.22" fill="#c2eafc"/><rect x="569.7777777777778" y="0" width="71.22222222222223" height="71.22222222222223" fill="#fffafa"/><rect x="569.78" y="0" width="35.61" height="35.61" fill="#fbf8f9"/><polygon points="569.78,0 605.39,35.61 569.78,35.61" fill="#d9e5f1"/><rect x="605.39" y="0" width="35.61" height="35.61" fill="#d0d7fd"/><polygon points="605.39,0 641,35.61 605.39,35.61" fill="#cddfee"/><rect x="569.78" y="35.61" width="35.61" height="35.61" fill="#d4e3ef"/><polygon points="569.78,35.61 605.39,71.22 569.78,71.22" fill="#8adcfd"/><rect x="605.39" y="35.61" width="35.61" height="35.61" fill="#fcf9fa"/><polygon points="605.39,35.61 641,71.22 605.39,71.22" fill="#bdd6ea"/><rect x="641" y="0" width="71.22222222222223" height="71.22222222222223" fill="#fffafa"/><rect x="641" y="0" width="35.61" height="35.61" fill="#cbdeed"/><polygon points="641,0 676.61,0 641,35.61" fill="#becafe"/><rect x="676.61" y="0" width="35.61" height="35.61" fill="#faf7f9"/><polygon points="676.61,0 712.22,0 712.22,35.61" fill="#fdf8fa"/><rect x="641" y="35.61" width="35.61" height="35.61" fill="#e3ebf3"/><polygon points="676.61,35.61 676.61,71.22 641,71.22" fill="#ced6fd"/><rect x="676.61" y="35.61" width="35.61" height="35.61" fill="#e7e8fb"/><polygon points="712.22,35.61 712.22,71.22 676.61,71.22" fill="#b2d1e7"/><rect x="712.2222222222223" y="0" width="71.22222222222223" height="71.22222222222223" fill="#fffafa"/><rect x="712.22" y="0" width="35.61" height="35.61" fill="#b4e7fc"/><polygon points="747.83,0 747.83,35.61 712.22,35.61" fill="#83dafe"/><rect x="747.83" y="0" width="35.61" height="35.61" fill="#fdf9f9"/><polygon points="747.83,0 783.44,0 783.44,35.61" fill="#f4f7fa"/><rect x="712.22" y="35.61" width="35.61" height="35.61" fill="#afcfe6"/><polygon points="712.22,35.61 747.83,35.61 712.22,71.22" fill="#e2eaf3"/><rect x="747.83" y="35.61" width="35.61" height="35.61" fill="#e1f2fb"/><polygon points="747.83,35.61 783.44,35.61 783.44,71.22" fill="#f2f1fb"/><rect x="783.4444444444446" y="0" width="71.22222222222223" height="71.22222222222223" fill="#fffafa"/><rect x="783.44" y="0" width="35.61" height="35.61" fill="#c7d0fd"/><polygon points="819.0500000000001,0 819.0500000000001,35.61 783.44,35.61" fill="#ade5fc"/><rect x="819.06" y="0" width="35.61" height="35.61" fill="#fbf7fa"/><polygon points="854.67,0 854.67,35.61 819.06,35.61" fill="#fefafa"/><rect x="783.44" y="35.61" width="35.61" height="35.61" fill="#eef6fa"/><polygon points="819.0500000000001,35.61 819.0500000000001,71.22 783.44,71.22" fill="#f0f6fa"/><rect x="819.06" y="35.61" width="35.61" height="35.61" fill="#bbe9fc"/><polygon points="854.67,35.61 854.67,71.22 819.06,71.22" fill="#dce0fc"/><rect x="854.6666666666667" y="0" width="71.22222222222223" height="71.22222222222223" fill="#fffafa"/><rect x="854.67" y="0" width="35.61" height="35.61" fill="#b3e7fc"/><polygon points="854.67,0 890.28,35.61 854.67,35.61" fill="#dce7f1"/><rect x="890.28" y="0" width="35.61" height="35.61" fill="#efeefb"/><polygon points="890.28,0 925.89,0 890.28,35.61" fill="#c7ecfc"/><rect x="854.67" y="35.61" width="35.61" height="35.61" fill="#b7e8fc"/><polygon points="854.67,35.61 890.28,35.61 854.67,71.22" fill="#d2eefb"/><rect x="890.28" y="35.61" width="35.61" height="35.61" fill="#95dffd"/><polygon points="925.89,35.61 925.89,71.22 890.28,71.22" fill="#f8f5fa"/><rect x="925.89" y="0" width="71.22" height="71.22" fill="#ecf0f5"/><polygon points="925.89,0 997.11,0 925.89,71.22" fill="#98e0fd"/><rect x="997.1111111111112" y="0" width="71.22222222222223" height="71.22222222222223" fill="#fffafa"/><rect x="997.11" y="0" width="35.61" height="35.61" fill="#ececfb"/><polygon points="997.11,0 1032.72,35.61 997.11,35.61" fill="#d6dcfc"/><rect x="1032.72" y="0" width="35.61" height="35.61" fill="#faf9fa"/><polygon points="1032.72,0 1068.33,35.61 1032.72,35.61" fill="#e4f3fb"/><rect x="997.11" y="35.61" width="35.61" height="35.61" fill="#adbdff"/><polygon points="997.11,35.61 1032.72,35.61 1032.72,71.22" fill="#c1ccfe"/><rect x="1032.72" y="35.61" width="35.61" height="35.61" fill="#e0e3fc"/><polygon points="1032.72,35.61 1068.33,35.61 1068.33,71.22" fill="#b8c5fe"/><rect x="1068.33" y="0" width="71.22" height="71.22" fill="#e0e3fc"/><polygon points="1068.33,0 1139.55,0 1139.55,71.22" fill="#99e0fd"/><rect x="0" y="71.22" width="71.22" height="71.22" fill="#fcf8f9"/><polygon points="71.22,71.22 71.22,142.44 0,142.44" fill="#dbdffc"/><rect x="71.22" y="71.22" width="71.22" height="71.22" fill="#c3daeb"/><polygon points="71.22,71.22 142.44,71.22 142.44,142.44" fill="#fdf8fa"/><rect x="142.44444444444446" y="71.22222222222223" width="71.22222222222223" height="71.22222222222223" fill="#fffafa"/><rect x="142.44" y="71.22" width="35.61" height="35.61" fill="#b0d0e7"/><polygon points="142.44,71.22 178.05,71.22 178.05,106.83" fill="#c5dbec"/><rect x="178.06" y="71.22" width="35.61" height="35.61" fill="#afcfe6"/><polygon points="178.06,71.22 213.67000000000002,106.83 178.06,106.83" fill="#adbdff"/><rect x="142.44" y="106.83" width="35.61" height="35.61" fill="#fffafa"/><polygon points="142.44,106.83 178.05,142.44 142.44,142.44" fill="#bfcafe"/><rect x="178.06" y="106.83" width="35.61" height="35.61" fill="#b3d1e7"/><polygon points="178.06,106.83 213.67000000000002,106.83 213.67000000000002,142.44" fill="#bce9fc"/><rect x="213.66666666666669" y="71.22222222222223" width="71.22222222222223" height="71.22222222222223" fill="#fffafa"/><rect x="213.67" y="71.22" width="35.61" height="35.61" fill="#c8d1fd"/><polygon points="213.67,71.22 249.27999999999997,106.83 213.67,106.83" fill="#b8c5fe"/><rect x="249.28" y="71.22" width="35.61" height="35.61" fill="#e1eaf3"/><polygon points="284.89,71.22 284.89,106.83 249.28,106.83" fill="#7bd8fe"/><rect x="213.67" y="106.83" width="35.61" height="35.61" fill="#dfe9f2"/><polygon points="249.27999999999997,106.83 249.27999999999997,142.44 213.67,142.44" fill="#dbdffc"/><rect x="249.28" y="106.83" width="35.61" height="35.61" fill="#cbd3fd"/><polygon points="249.28,106.83 284.89,106.83 249.28,142.44" fill="#dbdffc"/><rect x="284.89" y="71.22" width="71.22" height="71.22" fill="#81dafe"/><polygon points="284.89,71.22 356.11,142.44 284.89,142.44" fill="#eeedfb"/><rect x="356.11" y="71.22" width="71.22" height="71.22" fill="#cbdeed"/><polygon points="356.11,71.22 427.33000000000004,142.44 356.11,142.44" fill="#b9d4e9"/><rect x="427.33333333333337" y="71.22222222222223" width="71.22222222222223" height="71.22222222222223" fill="#fffafa"/><rect x="427.33" y="71.22" width="35.61" height="35.61" fill="#c6ebfc"/><polygon points="427.33,71.22 462.94,71.22 427.33,106.83" fill="#a0e2fd"/><rect x="462.94" y="71.22" width="35.61" height="35.61" fill="#a3e2fd"/><polygon points="462.94,71.22 498.55,71.22 498.55,106.83" fill="#fdf8fa"/><rect x="427.33" y="106.83" width="35.61" height="35.61" fill="#cbdeed"/><polygon points="427.33,106.83 462.94,106.83 462.94,142.44" fill="#8fddfd"/><rect x="462.94" y="106.83" width="35.61" height="35.61" fill="#ade5fc"/><polygon points="462.94,106.83 498.55,106.83 462.94,142.44" fill="#fefafa"/><rect x="498.56" y="71.22" width="71.22" height="71.22" fill="#d8ddfc"/><polygon points="498.56,71.22 569.78,142.44 498.56,142.44" fill="#dfe9f2"/><rect x="569.78" y="71.22" width="71.22" height="71.22" fill="#94dffd"/><polygon points="569.78,71.22 641,71.22 569.78,142.44" fill="#e7e8fb"/><rect x="641" y="71.22" width="71.22" height="71.22" fill="#d1e1ef"/><polygon points="641,71.22 712.22,71.22 712.22,142.44" fill="#d8e5f0"/><rect x="712.22" y="71.22" width="71.22" height="71.22" fill="#e8f4fb"/><polygon points="783.44,71.22 783.44,142.44 712.22,142.44" fill="#c3daeb"/><rect x="783.4444444444446" y="71.22222222222223" width="71.22222222222223" height="71.22222222222223" fill="#fffafa"/><rect x="783.44" y="71.22" width="35.61" height="35.61" fill="#8fddfd"/><polygon points="783.44,71.22 819.0500000000001,71.22 783.44,106.83" fill="#fbf8f9"/><rect x="819.06" y="71.22" width="35.61" height="35.61" fill="#b0bfff"/><polygon points="819.06,71.22 854.67,106.83 819.06,106.83" fill="#bed7ea"/><rect x="783.44" y="106.83" width="35.61" height="35.61" fill="#e9e9fb"/><polygon points="783.44,106.83 819.0500000000001,106.83 783.44,142.44" fill="#bcc8fe"/><rect x="819.06" y="106.83" width="35.61" height="35.61" fill="#dbe7f1"/><polygon points="819.06,106.83 854.67,106.83 819.06,142.44" fill="#c4ebfc"/><rect x="854.67" y="71.22" width="71.22" height="71.22" fill="#fbf7fa"/><polygon points="854.67,71.22 925.89,71.22 854.67,142.44" fill="#bed7ea"/><rect x="925.89" y="71.22" width="71.22" height="71.22" fill="#f2f1fb"/><polygon points="925.89,71.22 997.11,71.22 925.89,142.44" fill="#f9f7f9"/><rect x="997.11" y="71.22" width="71.22" height="71.22" fill="#dbdffc"/><polygon points="997.11,71.22 1068.33,71.22 997.11,142.44" fill="#d4e3ef"/><rect x="1068.3333333333335" y="71.22222222222223" width="71.22222222222223" height="71.22222222222223" fill="#fffafa"/><rect x="1068.33" y="71.22" width="35.61" height="35.61" fill="#bfd8ea"/><polygon points="1068.33,71.22 1103.9399999999998,71.22 1103.9399999999998,106.83" fill="#f7f8fa"/><rect x="1103.94" y="71.22" width="35.61" height="35.61" fill="#c6ecfc"/><polygon points="1139.55,71.22 1139.55,106.83 1103.94,106.83" fill="#92defd"/><rect x="1068.33" y="106.83" width="35.61" height="35.61" fill="#b1d0e7"/><polygon points="1068.33,106.83 1103.9399999999998,142.44 1068.33,142.44" fill="#f8f5fa"/><rect x="1103.94" y="106.83" width="35.61" height="35.61" fill="#b5e7fc"/><polygon points="1139.55,106.83 1139.55,142.44 1103.94,142.44" fill="#bcd6ea"/><rect x="0" y="142.44444444444446" width="71.22222222222223" height="71.22222222222223" fill="#fffafa"/><rect x="0" y="142.44" width="35.61" height="35.61" fill="#b3e7fc"/><polygon points="0,142.44 35.61,142.44 0,178.05" fill="#e0e9f2"/><rect x="35.61" y="142.44" width="35.61" height="35.61" fill="#7fd9fe"/><polygon points="71.22,142.44 71.22,178.05 35.61,178.05" fill="#ecf5fb"/><rect x="0" y="178.06" width="35.61" height="35.61" fill="#98e0fd"/><polygon points="0,178.06 35.61,178.06 35.61,213.67000000000002" fill="#c4cefd"/><rect x="35.61" y="178.06" width="35.61" height="35.61" fill="#dff2fb"/><polygon points="35.61,178.06 71.22,178.06 35.61,213.67000000000002" fill="#bbc8fe"/><rect x="71.22222222222223" y="142.44444444444446" width="71.22222222222223" height="71.22222222222223" fill="#fffafa"/><rect x="71.22" y="142.44" width="35.61" height="35.61" fill="#94dffd"/><polygon points="71.22,142.44 106.83,142.44 71.22,178.05" fill="#d0eefb"/><rect x="106.83" y="142.44" width="35.61" height="35.61" fill="#8eddfd"/><polygon points="142.44,142.44 142.44,178.05 106.83,178.05" fill="#daf1fb"/><rect x="71.22" y="178.06" width="35.61" height="35.61" fill="#e9eef5"/><polygon points="71.22,178.06 106.83,178.06 106.83,213.67000000000002" fill="#fcf8fa"/><rect x="106.83" y="178.06" width="35.61" height="35.61" fill="#e5ecf4"/><polygon points="106.83,178.06 142.44,178.06 106.83,213.67000000000002" fill="#dbdffc"/><rect x="142.44" y="142.44" width="71.22" height="71.22" fill="#b2d1e7"/><polygon points="142.44,142.44 213.66,142.44 142.44,213.66" fill="#cfd6fd"/><rect x="213.66666666666669" y="142.44444444444446" width="71.22222222222223" height="71.22222222222223" fill="#fffafa"/><rect x="213.67" y="142.44" width="35.61" height="35.61" fill="#e6ecf4"/><polygon points="213.67,142.44 249.27999999999997,142.44 249.27999999999997,178.05" fill="#d5dbfc"/><rect x="249.28" y="142.44" width="35.61" height="35.61" fill="#97dffd"/><polygon points="249.28,142.44 284.89,142.44 249.28,178.05" fill="#f1f2f7"/><rect x="213.67" y="178.06" width="35.61" height="35.61" fill="#faf8f9"/><polygon points="213.67,178.06 249.27999999999997,213.67000000000002 213.67,213.67000000000002" fill="#e2ebf3"/><rect x="249.28" y="178.06" width="35.61" height="35.61" fill="#d7f0fb"/><polygon points="249.28,178.06 284.89,178.06 249.28,213.67000000000002" fill="#dbdffc"/><rect x="284.8888888888889" y="142.44444444444446" width="71.22222222222223" height="71.22222222222223" fill="#fffafa"/><rect x="284.89" y="142.44" width="35.61" height="35.61" fill="#dff2fb"/><polygon points="284.89,142.44 320.5,142.44 320.5,178.05" fill="#d0eefb"/><rect x="320.5" y="142.44" width="35.61" height="35.61" fill="#f1f0fb"/><polygon points="320.5,142.44 356.11,178.05 320.5,178.05" fill="#c1ccfe"/><rect x="284.89" y="178.06" width="35.61" height="35.61" fill="#b8c5fe"/><polygon points="284.89,178.06 320.5,178.06 284.89,213.67000000000002" fill="#84dafe"/><rect x="320.5" y="178.06" width="35.61" height="35.61" fill="#eef1f6"/><polygon points="320.5,178.06 356.11,178.06 320.5,213.67000000000002" fill="#edf5fb"/><rect x="356.11111111111114" y="142.44444444444446" width="71.22222222222223" height="71.22222222222223" fill="#fffafa"/><rect x="356.11" y="142.44" width="35.61" height="35.61" fill="#dce7f1"/><polygon points="356.11,142.44 391.72,178.05 356.11,178.05" fill="#fcf9fa"/><rect x="391.72" y="142.44" width="35.61" height="35.61" fill="#fdf9fa"/><polygon points="427.33000000000004,142.44 427.33000000000004,178.05 391.72,178.05" fill="#82dafe"/><rect x="356.11" y="178.06" width="35.61" height="35.61" fill="#a2e2fd"/><polygon points="391.72,178.06 391.72,213.67000000000002 356.11,213.67000000000002" fill="#7fd9fe"/><rect x="391.72" y="178.06" width="35.61" height="35.61" fill="#ceedfb"/><polygon points="391.72,178.06 427.33000000000004,178.06 391.72,213.67000000000002" fill="#b6c4fe"/><rect x="427.33333333333337" y="142.44444444444446" width="71.22222222222223" height="71.22222222222223" fill="#fffafa"/><rect x="427.33" y="142.44" width="35.61" height="35.61" fill="#ecf5fb"/><polygon points="427.33,142.44 462.94,142.44 427.33,178.05" fill="#dce7f2"/><rect x="462.94" y="142.44" width="35.61" height="35.61" fill="#90defd"/><polygon points="462.94,142.44 498.55,142.44 462.94,178.05" fill="#d7f0fb"/><rect x="427.33" y="178.06" width="35.61" height="35.61" fill="#f6f5f8"/><polygon points="427.33,178.06 462.94,178.06 427.33,213.67000000000002" fill="#f7f6f8"/><rect x="462.94" y="178.06" width="35.61" height="35.61" fill="#f4f2fb"/><polygon points="462.94,178.06 498.55,178.06 498.55,213.67000000000002" fill="#cfeefb"/><rect x="498.5555555555556" y="142.44444444444446" width="71.22222222222223" height="71.22222222222223" fill="#fffafa"/><rect x="498.56" y="142.44" width="35.61" height="35.61" fill="#b3d1e7"/><polygon points="498.56,142.44 534.17,178.05 498.56,178.05" fill="#fbf8f9"/><rect x="534.17" y="142.44" width="35.61" height="35.61" fill="#b4d2e8"/><polygon points="534.17,142.44 569.78,142.44 569.78,178.05" fill="#b4e7fc"/><rect x="498.56" y="178.06" width="35.61" height="35.61" fill="#d2eefb"/><polygon points="498.56,178.06 534.17,213.67000000000002 498.56,213.67000000000002" fill="#fcf9f9"/><rect x="534.17" y="178.06" width="35.61" height="35.61" fill="#e0e9f2"/><polygon points="534.17,178.06 569.78,178.06 534.17,213.67000000000002" fill="#85dbfd"/><rect x="569.7777777777778" y="142.44444444444446" width="71.22222222222223" height="71.22222222222223" fill="#fffafa"/><rect x="569.78" y="142.44" width="35.61" height="35.61" fill="#ccd4fd"/><polygon points="569.78,142.44 605.39,142.44 569.78,178.05" fill="#f9f6fa"/><rect x="605.39" y="142.44" width="35.61" height="35.61" fill="#e2e4fc"/><polygon points="605.39,142.44 641,142.44 641,178.05" fill="#cfe0ee"/><rect x="569.78" y="178.06" width="35.61" height="35.61" fill="#afe6fc"/><polygon points="569.78,178.06 605.39,213.67000000000002 569.78,213.67000000000002" fill="#e6e7fb"/><rect x="605.39" y="178.06" width="35.61" height="35.61" fill="#d0e1ee"/><polygon points="605.39,178.06 641,178.06 641,213.67000000000002" fill="#7dd9fe"/><rect x="641" y="142.44444444444446" width="71.22222222222223" height="71.22222222222223" fill="#fffafa"/><rect x="641" y="142.44" width="35.61" height="35.61" fill="#aabbff"/><polygon points="676.61,142.44 676.61,178.05 641,178.05" fill="#e9f4fb"/><rect x="676.61" y="142.44" width="35.61" height="35.61" fill="#eeedfb"/><polygon points="676.61,142.44 712.22,142.44 676.61,178.05" fill="#cfeefb"/><rect x="641" y="178.06" width="35.61" height="35.61" fill="#ced6fd"/><polygon points="641,178.06 676.61,178.06 676.61,213.67000000000002" fill="#d6dcfc"/><rect x="676.61" y="178.06" width="35.61" height="35.61" fill="#cad3fd"/><polygon points="676.61,178.06 712.22,213.67000000000002 676.61,213.67000000000002" fill="#eaebfb"/><rect x="712.2222222222223" y="142.44444444444446" width="71.22222222222223" height="71.22222222222223" fill="#fffafa"/><rect x="712.22" y="142.44" width="35.61" height="35.61" fill="#78d8fe"/><polygon points="747.83,142.44 747.83,178.05 712.22,178.05" fill="#c2cdfe"/><rect x="747.83" y="142.44" width="35.61" height="35.61" fill="#d0d7fd"/><polygon points="747.83,142.44 783.44,142.44 783.44,178.05" fill="#99e0fd"/><rect x="712.22" y="178.06" width="35.61" height="35.61" fill="#e5ecf4"/><polygon points="747.83,178.06 747.83,213.67000000000002 712.22,213.67000000000002" fill="#c6ebfc"/><rect x="747.83" y="178.06" width="35.61" height="35.61" fill="#d9e6f1"/><polygon points="783.44,178.06 783.44,213.67000000000002 747.83,213.67000000000002" fill="#faf7f9"/><rect x="783.4444444444446" y="142.44444444444446" width="71.22222222222223" height="71.22222222222223" fill="#fffafa"/><rect x="783.44" y="142.44" width="35.61" height="35.61" fill="#f8f8fa"/><polygon points="783.44,142.44 819.0500000000001,142.44 819.0500000000001,178.05" fill="#ecf0f5"/><rect x="819.06" y="142.44" width="35.61" height="35.61" fill="#b4d2e8"/><polygon points="819.06,142.44 854.67,142.44 819.06,178.05" fill="#def2fb"/><rect x="783.44" y="178.06" width="35.61" height="35.61" fill="#d6e4f0"/><polygon points="783.44,178.06 819.0500000000001,178.06 819.0500000000001,213.67000000000002" fill="#78d8fe"/><rect x="819.06" y="178.06" width="35.61" height="35.61" fill="#f3f7fa"/><polygon points="854.67,178.06 854.67,213.67000000000002 819.06,213.67000000000002" fill="#afbfff"/><rect x="854.6666666666667" y="142.44444444444446" width="71.22222222222223" height="71.22222222222223" fill="#fffafa"/><rect x="854.67" y="142.44" width="35.61" height="35.61" fill="#dde1fc"/><polygon points="854.67,142.44 890.28,142.44 854.67,178.05" fill="#f6f5f8"/><rect x="890.28" y="142.44" width="35.61" height="35.61" fill="#bbd6e9"/><polygon points="890.28,142.44 925.89,142.44 890.28,178.05" fill="#d6e4f0"/><rect x="854.67" y="178.06" width="35.61" height="35.61" fill="#f9f7f9"/><polygon points="854.67,178.06 890.28,213.67000000000002 854.67,213.67000000000002" fill="#c7d0fd"/><rect x="890.28" y="178.06" width="35.61" height="35.61" fill="#dbe7f1"/><polygon points="890.28,178.06 925.89,213.67000000000002 890.28,213.67000000000002" fill="#b9e8fc"/><rect x="925.8888888888889" y="142.44444444444446" width="71.22222222222223" height="71.22222222222223" fill="#fffafa"/><rect x="925.89" y="142.44" width="35.61" height="35.61" fill="#dde8f2"/><polygon points="925.89,142.44 961.5,142.44 961.5,178.05" fill="#b9c6fe"/><rect x="961.5" y="142.44" width="35.61" height="35.61" fill="#f3f4f7"/><polygon points="961.5,142.44 997.11,142.44 997.11,178.05" fill="#c8d1fd"/><rect x="925.89" y="178.06" width="35.61" height="35.61" fill="#a9baff"/><polygon points="925.89,178.06 961.5,178.06 961.5,213.67000000000002" fill="#e6e7fb"/><rect x="961.5" y="178.06" width="35.61" height="35.61" fill="#edf5fb"/><polygon points="997.11,178.06 997.11,213.67000000000002 961.5,213.67000000000002" fill="#c5ebfc"/><rect x="997.11" y="142.44" width="71.22" height="71.22" fill="#87dbfd"/><polygon points="997.11,142.44 1068.33,142.44 997.11,213.66" fill="#e8eef4"/><rect x="1068.33" y="142.44" width="71.22" height="71.22" fill="#a5e3fd"/><polygon points="1068.33,142.44 1139.55,142.44 1139.55,213.66" fill="#c7ecfc"/><rect x="0" y="213.66666666666669" width="71.22222222222223" height="71.22222222222223" fill="#fffafa"/><rect x="0" y="213.67" width="35.61" height="35.61" fill="#88dcfd"/><polygon points="0,213.67 35.61,249.27999999999997 0,249.27999999999997" fill="#dadffc"/><rect x="35.61" y="213.67" width="35.61" height="35.61" fill="#7ed9fe"/><polygon points="35.61,213.67 71.22,249.27999999999997 35.61,249.27999999999997" fill="#b7e8fc"/><rect x="0" y="249.28" width="35.61" height="35.61" fill="#edf0f6"/><polygon points="0,249.28 35.61,284.89 0,284.89" fill="#aee5fc"/><rect x="35.61" y="249.28" width="35.61" height="35.61" fill="#d8e5f0"/><polygon points="35.61,249.28 71.22,284.89 35.61,284.89" fill="#cbdeed"/><rect x="71.22" y="213.67" width="71.22" height="71.22" fill="#a4e3fd"/><polygon points="71.22,213.67 142.44,213.67 142.44,284.89" fill="#e2eaf3"/><rect x="142.44" y="213.67" width="71.22" height="71.22" fill="#cbedfb"/><polygon points="213.66,213.67 213.66,284.89 142.44,284.89" fill="#e0e3fc"/><rect x="213.67" y="213.67" width="71.22" height="71.22" fill="#c1ccfe"/><polygon points="213.67,213.67 284.89,213.67 284.89,284.89" fill="#acbcff"/><rect x="284.89" y="213.67" width="71.22" height="71.22" fill="#cfeefb"/><polygon points="356.11,213.67 356.11,284.89 284.89,284.89" fill="#faf6fa"/><rect x="356.11111111111114" y="213.66666666666669" width="71.22222222222223" height="71.22222222222223" fill="#fffafa"/><rect x="356.11" y="213.67" width="35.61" height="35.61" fill="#fbf7fa"/><polygon points="356.11,213.67 391.72,249.27999999999997 356.11,249.27999999999997" fill="#f7f4fa"/><rect x="391.72" y="213.67" width="35.61" height="35.61" fill="#afcfe7"/><polygon points="391.72,213.67 427.33000000000004,249.27999999999997 391.72,249.27999999999997" fill="#fef9fa"/><rect x="356.11" y="249.28" width="35.61" height="35.61" fill="#b8c5fe"/><polygon points="391.72,249.28 391.72,284.89 356.11,284.89" fill="#c6ebfc"/><rect x="391.72" y="249.28" width="35.61" height="35.61" fill="#ccd4fd"/><polygon points="427.33000000000004,249.28 427.33000000000004,284.89 391.72,284.89" fill="#fefafa"/><rect x="427.33333333333337" y="213.66666666666669" width="71.22222222222223" height="71.22222222222223" fill="#fffafa"/><rect x="427.33" y="213.67" width="35.61" height="35.61" fill="#f2f3f7"/><polygon points="427.33,213.67 462.94,213.67 427.33,249.27999999999997" fill="#bce9fc"/><rect x="462.94" y="213.67" width="35.61" height="35.61" fill="#c1d9eb"/><polygon points="462.94,213.67 498.55,213.67 462.94,249.27999999999997" fill="#c1eafc"/><rect x="427.33" y="249.28" width="35.61" height="35.61" fill="#c1ccfe"/><polygon points="462.94,249.28 462.94,284.89 427.33,284.89" fill="#b0d0e7"/><rect x="462.94" y="249.28" width="35.61" height="35.61" fill="#c3daeb"/><polygon points="462.94,249.28 498.55,284.89 462.94,284.89" fill="#c9ecfc"/><rect x="498.56" y="213.67" width="71.22" height="71.22" fill="#77d7fe"/><polygon points="498.56,213.67 569.78,213.67 498.56,284.89" fill="#daf1fb"/><rect x="569.78" y="213.67" width="71.22" height="71.22" fill="#eeedfb"/><polygon points="569.78,213.67 641,213.67 641,284.89" fill="#ccd4fd"/><rect x="641" y="213.67" width="71.22" height="71.22" fill="#abe5fc"/><polygon points="712.22,213.67 712.22,284.89 641,284.89" fill="#f1f6fa"/><rect x="712.22" y="213.67" width="71.22" height="71.22" fill="#b1c0ff"/><polygon points="783.44,213.67 783.44,284.89 712.22,284.89" fill="#e1e4fc"/><rect x="783.44" y="213.67" width="71.22" height="71.22" fill="#a3e3fd"/><polygon points="783.44,213.67 854.6600000000001,213.67 854.6600000000001,284.89" fill="#f3f1fb"/><rect x="854.6666666666667" y="213.66666666666669" width="71.22222222222223" height="71.22222222222223" fill="#fffafa"/><rect x="854.67" y="213.67" width="35.61" height="35.61" fill="#b2d1e7"/><polygon points="890.28,213.67 890.28,249.27999999999997 854.67,249.27999999999997" fill="#bad5e9"/><rect x="890.28" y="213.67" width="35.61" height="35.61" fill="#f9f9fa"/><polygon points="890.28,213.67 925.89,213.67 925.89,249.27999999999997" fill="#c7d1fd"/><rect x="854.67" y="249.28" width="35.61" height="35.61" fill="#bcd6ea"/><polygon points="854.67,249.28 890.28,249.28 890.28,284.89" fill="#ebeff5"/><rect x="890.28" y="249.28" width="35.61" height="35.61" fill="#8eddfd"/><polygon points="890.28,249.28 925.89,284.89 890.28,284.89" fill="#dadefc"/><rect x="925.89" y="213.67" width="71.22" height="71.22" fill="#cfd6fd"/><polygon points="925.89,213.67 997.11,284.89 925.89,284.89" fill="#e0e3fc"/><rect x="997.11" y="213.67" width="71.22" height="71.22" fill="#aee5fc"/><polygon points="997.11,213.67 1068.33,213.67 1068.33,284.89" fill="#c8d1fd"/><rect x="1068.33" y="213.67" width="71.22" height="71.22" fill="#cddfee"/><polygon points="1068.33,213.67 1139.55,284.89 1068.33,284.89" fill="#f3f3f7"/><rect x="0" y="284.8888888888889" width="71.22222222222223" height="71.22222222222223" fill="#fffafa"/><rect x="0" y="284.89" width="35.61" height="35.61" fill="#c6ebfc"/><polygon points="0,284.89 35.61,320.5 0,320.5" fill="#c7dcec"/><rect x="35.61" y="284.89" width="35.61" height="35.61" fill="#97e0fd"/><polygon points="35.61,284.89 71.22,320.5 35.61,320.5" fill="#b7d3e8"/><rect x="0" y="320.5" width="35.61" height="35.61" fill="#d8ddfc"/><polygon points="0,320.5 35.61,356.11 0,356.11" fill="#cbedfb"/><rect x="35.61" y="320.5" width="35.61" height="35.61" fill="#9de1fd"/><polygon points="71.22,320.5 71.22,356.11 35.61,356.11" fill="#afe6fc"/><rect x="71.22" y="284.89" width="71.22" height="71.22" fill="#f2f3f7"/><polygon points="71.22,284.89 142.44,356.11 71.22,356.11" fill="#b0d0e7"/><rect x="142.44" y="284.89" width="71.22" height="71.22" fill="#dff2fb"/><polygon points="142.44,284.89 213.66,284.89 213.66,356.11" fill="#b7d3e8"/><rect x="213.66666666666669" y="284.8888888888889" width="71.22222222222223" height="71.22222222222223" fill="#fffafa"/><rect x="213.67" y="284.89" width="35.61" height="35.61" fill="#8adcfd"/><polygon points="213.67,284.89 249.27999999999997,320.5 213.67,320.5" fill="#abbbff"/><rect x="249.28" y="284.89" width="35.61" height="35.61" fill="#aebeff"/><polygon points="249.28,284.89 284.89,284.89 249.28,320.5" fill="#ced5fd"/><rect x="213.67" y="320.5" width="35.61" height="35.61" fill="#c8ecfc"/><polygon points="213.67,320.5 249.27999999999997,356.11 213.67,356.11" fill="#9de1fd"/><rect x="249.28" y="320.5" width="35.61" height="35.61" fill="#bed7ea"/><polygon points="249.28,320.5 284.89,320.5 284.89,356.11" fill="#f5f7fa"/><rect x="284.8888888888889" y="284.8888888888889" width="71.22222222222223" height="71.22222222222223" fill="#fffafa"/><rect x="284.89" y="284.89" width="35.61" height="35.61" fill="#bfd8ea"/><polygon points="284.89,284.89 320.5,320.5 284.89,320.5" fill="#cbdeed"/><rect x="320.5" y="284.89" width="35.61" height="35.61" fill="#f4f2fb"/><polygon points="320.5,284.89 356.11,284.89 356.11,320.5" fill="#d2e2ef"/><rect x="284.89" y="320.5" width="35.61" height="35.61" fill="#94dffd"/><polygon points="284.89,320.5 320.5,320.5 284.89,356.11" fill="#eeeefb"/><rect x="320.5" y="320.5" width="35.61" height="35.61" fill="#e4ebf3"/><polygon points="320.5,320.5 356.11,320.5 320.5,356.11" fill="#a0e2fd"/><rect x="356.11111111111114" y="284.8888888888889" width="71.22222222222223" height="71.22222222222223" fill="#fffafa"/><rect x="356.11" y="284.89" width="35.61" height="35.61" fill="#e1eaf3"/><polygon points="356.11,284.89 391.72,284.89 356.11,320.5" fill="#d1d8fd"/><rect x="391.72" y="284.89" width="35.61" height="35.61" fill="#bfcafe"/><polygon points="391.72,284.89 427.33000000000004,320.5 391.72,320.5" fill="#bfd8ea"/><rect x="356.11" y="320.5" width="35.61" height="35.61" fill="#bae8fc"/><polygon points="391.72,320.5 391.72,356.11 356.11,356.11" fill="#b2e6fc"/><rect x="391.72" y="320.5" width="35.61" height="35.61" fill="#eaeafb"/><polygon points="391.72,320.5 427.33000000000004,320.5 391.72,356.11" fill="#fcf9fa"/><rect x="427.33" y="284.89" width="71.22" height="71.22" fill="#b1d0e7"/><polygon points="427.33,284.89 498.54999999999995,356.11 427.33,356.11" fill="#cfd6fd"/><rect x="498.5555555555556" y="284.8888888888889" width="71.22222222222223" height="71.22222222222223" fill="#fffafa"/><rect x="498.56" y="284.89" width="35.61" height="35.61" fill="#afbeff"/><polygon points="498.56,284.89 534.17,284.89 498.56,320.5" fill="#98e0fd"/><rect x="534.17" y="284.89" width="35.61" height="35.61" fill="#fdf9fa"/><polygon points="534.17,284.89 569.78,284.89 534.17,320.5" fill="#80dafe"/><rect x="498.56" y="320.5" width="35.61" height="35.61" fill="#bdc9fe"/><polygon points="498.56,320.5 534.17,320.5 534.17,356.11" fill="#eeedfb"/><rect x="534.17" y="320.5" width="35.61" height="35.61" fill="#d3e2ef"/><polygon points="534.17,320.5 569.78,320.5 534.17,356.11" fill="#e0e9f2"/><rect x="569.78" y="284.89" width="71.22" height="71.22" fill="#ade5fc"/><polygon points="569.78,284.89 641,284.89 569.78,356.11" fill="#b7d3e8"/><rect x="641" y="284.89" width="71.22" height="71.22" fill="#7dd9fe"/><polygon points="712.22,284.89 712.22,356.11 641,356.11" fill="#dbdffc"/><rect x="712.22" y="284.89" width="71.22" height="71.22" fill="#d2e2ef"/><polygon points="712.22,284.89 783.44,284.89 783.44,356.11" fill="#f2f0fb"/><rect x="783.44" y="284.89" width="71.22" height="71.22" fill="#d2eefb"/><polygon points="854.6600000000001,284.89 854.6600000000001,356.11 783.44,356.11" fill="#dde0fc"/><rect x="854.6666666666667" y="284.8888888888889" width="71.22222222222223" height="71.22222222222223" fill="#fffafa"/><rect x="854.67" y="284.89" width="35.61" height="35.61" fill="#b1c0ff"/><polygon points="854.67,284.89 890.28,284.89 854.67,320.5" fill="#c4daec"/><rect x="890.28" y="284.89" width="35.61" height="35.61" fill="#c0d8eb"/><polygon points="925.89,284.89 925.89,320.5 890.28,320.5" fill="#b5d2e8"/><rect x="854.67" y="320.5" width="35.61" height="35.61" fill="#e3ebf3"/><polygon points="854.67,320.5 890.28,320.5 854.67,356.11" fill="#fcf8fa"/><rect x="890.28" y="320.5" width="35.61" height="35.61" fill="#edf5fb"/><polygon points="890.28,320.5 925.89,320.5 890.28,356.11" fill="#e4ebf3"/><rect x="925.89" y="284.89" width="71.22" height="71.22" fill="#f3f4f7"/><polygon points="925.89,284.89 997.11,284.89 925.89,356.11" fill="#9be0fd"/><rect x="997.1111111111112" y="284.8888888888889" width="71.22222222222223" height="71.22222222222223" fill="#fffafa"/><rect x="997.11" y="284.89" width="35.61" height="35.61" fill="#f6f5f8"/><polygon points="997.11,284.89 1032.72,284.89 997.11,320.5" fill="#fcf9fa"/><rect x="1032.72" y="284.89" width="35.61" height="35.61" fill="#e6f4fb"/><polygon points="1032.72,284.89 1068.33,320.5 1032.72,320.5" fill="#a1e2fd"/><rect x="997.11" y="320.5" width="35.61" height="35.61" fill="#e6f4fb"/><polygon points="997.11,320.5 1032.72,320.5 1032.72,356.11" fill="#88dcfd"/><rect x="1032.72" y="320.5" width="35.61" height="35.61" fill="#d8e5f0"/><polygon points="1032.72,320.5 1068.33,320.5 1068.33,356.11" fill="#d0e1ee"/><rect x="1068.33" y="284.89" width="71.22" height="71.22" fill="#dfe9f2"/><polygon points="1068.33,284.89 1139.55,284.89 1139.55,356.11" fill="#dfe9f2"/><rect x="0" y="356.11111111111114" width="71.22222222222223" height="71.22222222222223" fill="#fffafa"/><rect x="0" y="356.11" width="35.61" height="35.61" fill="#e6f4fb"/><polygon points="35.61,356.11 35.61,391.72 0,391.72" fill="#b4d2e8"/><rect x="35.61" y="356.11" width="35.61" height="35.61" fill="#c1ccfe"/><polygon points="35.61,356.11 71.22,356.11 71.22,391.72" fill="#bac7fe"/><rect x="0" y="391.72" width="35.61" height="35.61" fill="#97dffd"/><polygon points="0,391.72 35.61,391.72 0,427.33000000000004" fill="#f1f3f7"/><rect x="35.61" y="391.72" width="35.61" height="35.61" fill="#e7f4fb"/><polygon points="35.61,391.72 71.22,427.33000000000004 35.61,427.33000000000004" fill="#d1e1ef"/><rect x="71.22222222222223" y="356.11111111111114" width="71.22222222222223" height="71.22222222222223" fill="#fffafa"/><rect x="71.22" y="356.11" width="35.61" height="35.61" fill="#d8e5f0"/><polygon points="71.22,356.11 106.83,356.11 71.22,391.72" fill="#f0effb"/><rect x="106.83" y="356.11" width="35.61" height="35.61" fill="#7cd9fe"/><polygon points="106.83,356.11 142.44,356.11 106.83,391.72" fill="#c3cefd"/><rect x="71.22" y="391.72" width="35.61" height="35.61" fill="#f1f3f7"/><polygon points="71.22,391.72 106.83,427.33000000000004 71.22,427.33000000000004" fill="#fbf8f9"/><rect x="106.83" y="391.72" width="35.61" height="35.61" fill="#f3f4f7"/><polygon points="106.83,391.72 142.44,391.72 106.83,427.33000000000004" fill="#dfe2fc"/><rect x="142.44444444444446" y="356.11111111111114" width="71.22222222222223" height="71.22222222222223" fill="#fffafa"/><rect x="142.44" y="356.11" width="35.61" height="35.61" fill="#d7f0fb"/><polygon points="142.44,356.11 178.05,391.72 142.44,391.72" fill="#fef9fa"/><rect x="178.06" y="356.11" width="35.61" height="35.61" fill="#c1d9eb"/><polygon points="178.06,356.11 213.67000000000002,356.11 178.06,391.72" fill="#f3f1fb"/><rect x="142.44" y="391.72" width="35.61" height="35.61" fill="#daf0fb"/><polygon points="142.44,391.72 178.05,391.72 142.44,427.33000000000004" fill="#a9e4fc"/><rect x="178.06" y="391.72" width="35.61" height="35.61" fill="#d2d9fd"/><polygon points="178.06,391.72 213.67000000000002,391.72 213.67000000000002,427.33000000000004" fill="#fef9fa"/><rect x="213.67" y="356.11" width="71.22" height="71.22" fill="#e1e4fc"/><polygon points="213.67,356.11 284.89,356.11 213.67,427.33000000000004" fill="#b6c3fe"/><rect x="284.8888888888889" y="356.11111111111114" width="71.22222222222223" height="71.22222222222223" fill="#fffafa"/><rect x="284.89" y="356.11" width="35.61" height="35.61" fill="#d1d7fd"/><polygon points="284.89,356.11 320.5,356.11 320.5,391.72" fill="#9de1fd"/><rect x="320.5" y="356.11" width="35.61" height="35.61" fill="#edecfb"/><polygon points="320.5,356.11 356.11,356.11 356.11,391.72" fill="#aabaff"/><rect x="284.89" y="391.72" width="35.61" height="35.61" fill="#dee8f2"/><polygon points="284.89,391.72 320.5,391.72 284.89,427.33000000000004" fill="#eaeff5"/><rect x="320.5" y="391.72" width="35.61" height="35.61" fill="#bcc8fe"/><polygon points="356.11,391.72 356.11,427.33000000000004 320.5,427.33000000000004" fill="#ecf0f5"/><rect x="356.11111111111114" y="356.11111111111114" width="71.22222222222223" height="71.22222222222223" fill="#fffafa"/><rect x="356.11" y="356.11" width="35.61" height="35.61" fill="#7bd8fe"/><polygon points="391.72,356.11 391.72,391.72 356.11,391.72" fill="#adcee6"/><rect x="391.72" y="356.11" width="35.61" height="35.61" fill="#7ed9fe"/><polygon points="391.72,356.11 427.33000000000004,356.11 391.72,391.72" fill="#bbe9fc"/><rect x="356.11" y="391.72" width="35.61" height="35.61" fill="#fcf9f9"/><polygon points="356.11,391.72 391.72,427.33000000000004 356.11,427.33000000000004" fill="#b4d2e8"/><rect x="391.72" y="391.72" width="35.61" height="35.61" fill="#c0cbfe"/><polygon points="391.72,391.72 427.33000000000004,391.72 427.33000000000004,427.33000000000004" fill="#f0effb"/><rect x="427.33" y="356.11" width="71.22" height="71.22" fill="#d7e4f0"/><polygon points="427.33,356.11 498.54999999999995,356.11 427.33,427.33000000000004" fill="#f8f5fa"/><rect x="498.5555555555556" y="356.11111111111114" width="71.22222222222223" height="71.22222222222223" fill="#fffafa"/><rect x="498.56" y="356.11" width="35.61" height="35.61" fill="#e5ecf4"/><polygon points="498.56,356.11 534.17,356.11 534.17,391.72" fill="#83dafe"/><rect x="534.17" y="356.11" width="35.61" height="35.61" fill="#e3ebf3"/><polygon points="534.17,356.11 569.78,391.72 534.17,391.72" fill="#7bd8fe"/><rect x="498.56" y="391.72" width="35.61" height="35.61" fill="#d0e1ef"/><polygon points="534.17,391.72 534.17,427.33000000000004 498.56,427.33000000000004" fill="#dfe9f2"/><rect x="534.17" y="391.72" width="35.61" height="35.61" fill="#d4effb"/><polygon points="534.17,391.72 569.78,391.72 569.78,427.33000000000004" fill="#fbf9fa"/><rect x="569.78" y="356.11" width="71.22" height="71.22" fill="#fdf9fa"/><polygon points="569.78,356.11 641,427.33000000000004 569.78,427.33000000000004" fill="#b5c3fe"/><rect x="641" y="356.11" width="71.22" height="71.22" fill="#abe5fc"/><polygon points="641,356.11 712.22,427.33000000000004 641,427.33000000000004" fill="#eef1f6"/><rect x="712.22" y="356.11" width="71.22" height="71.22" fill="#e2eaf3"/><polygon points="712.22,356.11 783.44,356.11 783.44,427.33000000000004" fill="#dae6f1"/><rect x="783.4444444444446" y="356.11111111111114" width="71.22222222222223" height="71.22222222222223" fill="#fffafa"/><rect x="783.44" y="356.11" width="35.61" height="35.61" fill="#a2e2fd"/><polygon points="783.44,356.11 819.0500000000001,356.11 783.44,391.72" fill="#7cd8fe"/><rect x="819.06" y="356.11" width="35.61" height="35.61" fill="#a3e2fd"/><polygon points="819.06,356.11 854.67,356.11 854.67,391.72" fill="#b3c1fe"/><rect x="783.44" y="391.72" width="35.61" height="35.61" fill="#f7f4fa"/><polygon points="783.44,391.72 819.0500000000001,391.72 819.0500000000001,427.33000000000004" fill="#ccd4fd"/><rect x="819.06" y="391.72" width="35.61" height="35.61" fill="#c5cffd"/><polygon points="819.06,391.72 854.67,391.72 854.67,427.33000000000004" fill="#b6e7fc"/><rect x="854.67" y="356.11" width="71.22" height="71.22" fill="#d4dafc"/><polygon points="854.67,356.11 925.89,356.11 925.89,427.33000000000004" fill="#b2c1fe"/><rect x="925.89" y="356.11" width="71.22" height="71.22" fill="#b7e8fc"/><polygon points="925.89,356.11 997.11,356.11 925.89,427.33000000000004" fill="#eef1f6"/><rect x="997.1111111111112" y="356.11111111111114" width="71.22222222222223" height="71.22222222222223" fill="#fffafa"/><rect x="997.11" y="356.11" width="35.61" height="35.61" fill="#b9d4e9"/><polygon points="997.11,356.11 1032.72,356.11 997.11,391.72" fill="#a9e4fc"/><rect x="1032.72" y="356.11" width="35.61" height="35.61" fill="#cfe0ee"/><polygon points="1032.72,356.11 1068.33,356.11 1068.33,391.72" fill="#c0cbfe"/><rect x="997.11" y="391.72" width="35.61" height="35.61" fill="#7ed9fe"/><polygon points="997.11,391.72 1032.72,391.72 1032.72,427.33000000000004" fill="#bfeafc"/><rect x="1032.72" y="391.72" width="35.61" height="35.61" fill="#ebeff5"/><polygon points="1032.72,391.72 1068.33,391.72 1032.72,427.33000000000004" fill="#d1eefb"/><rect x="1068.3333333333335" y="356.11111111111114" width="71.22222222222223" height="71.22222222222223" fill="#fffafa"/><rect x="1068.33" y="356.11" width="35.61" height="35.61" fill="#d1e1ef"/><polygon points="1068.33,356.11 1103.9399999999998,356.11 1068.33,391.72" fill="#faf7f9"/><rect x="1103.94" y="356.11" width="35.61" height="35.61" fill="#d3effb"/><polygon points="1139.55,356.11 1139.55,391.72 1103.94,391.72" fill="#d8f0fb"/><rect x="1068.33" y="391.72" width="35.61" height="35.61" fill="#d0d7fd"/><polygon points="1103.9399999999998,391.72 1103.9399999999998,427.33000000000004 1068.33,427.33000000000004" fill="#e2ebf3"/><rect x="1103.94" y="391.72" width="35.61" height="35.61" fill="#b1c0ff"/><polygon points="1103.94,391.72 1139.55,427.33000000000004 1103.94,427.33000000000004" fill="#f9f9fa"/><rect x="0" y="427.33333333333337" width="71.22222222222223" height="71.22222222222223" fill="#fffafa"/><rect x="0" y="427.33" width="35.61" height="35.61" fill="#caecfc"/><polygon points="0,427.33 35.61,462.94 0,462.94" fill="#b6c4fe"/><rect x="35.61" y="427.33" width="35.61" height="35.61" fill="#ebf5fb"/><polygon points="35.61,427.33 71.22,427.33 71.22,462.94" fill="#a4e3fd"/><rect x="0" y="462.94" width="35.61" height="35.61" fill="#e5ecf4"/><polygon points="0,462.94 35.61,462.94 0,498.55" fill="#b2d1e7"/><rect x="35.61" y="462.94" width="35.61" height="35.61" fill="#c8dded"/><polygon points="35.61,462.94 71.22,462.94 35.61,498.55" fill="#edf5fb"/><rect x="71.22" y="427.33" width="71.22" height="71.22" fill="#abbbff"/><polygon points="71.22,427.33 142.44,427.33 71.22,498.54999999999995" fill="#dbdffc"/><rect x="142.44444444444446" y="427.33333333333337" width="71.22222222222223" height="71.22222222222223" fill="#fffafa"/><rect x="142.44" y="427.33" width="35.61" height="35.61" fill="#c0d8eb"/><polygon points="178.05,427.33 178.05,462.94 142.44,462.94" fill="#b8e8fc"/><rect x="178.06" y="427.33" width="35.61" height="35.61" fill="#a7e4fc"/><polygon points="178.06,427.33 213.67000000000002,427.33 213.67000000000002,462.94" fill="#c2d9eb"/><rect x="142.44" y="462.94" width="35.61" height="35.61" fill="#b6e7fc"/><polygon points="178.05,462.94 178.05,498.55 142.44,498.55" fill="#d2d9fd"/><rect x="178.06" y="462.94" width="35.61" height="35.61" fill="#c3cefd"/><polygon points="178.06,462.94 213.67000000000002,498.55 178.06,498.55" fill="#def1fb"/><rect x="213.66666666666669" y="427.33333333333337" width="71.22222222222223" height="71.22222222222223" fill="#fffafa"/><rect x="213.67" y="427.33" width="35.61" height="35.61" fill="#d5dbfc"/><polygon points="213.67,427.33 249.27999999999997,427.33 249.27999999999997,462.94" fill="#f3f7fa"/><rect x="249.28" y="427.33" width="35.61" height="35.61" fill="#e4e6fc"/><polygon points="249.28,427.33 284.89,427.33 284.89,462.94" fill="#f8f8fa"/><rect x="213.67" y="462.94" width="35.61" height="35.61" fill="#adbdff"/><polygon points="213.67,462.94 249.27999999999997,462.94 213.67,498.55" fill="#dfe9f2"/><rect x="249.28" y="462.94" width="35.61" height="35.61" fill="#c3cefd"/><polygon points="249.28,462.94 284.89,462.94 249.28,498.55" fill="#e6f4fb"/><rect x="284.89" y="427.33" width="71.22" height="71.22" fill="#a9baff"/><polygon points="356.11,427.33 356.11,498.54999999999995 284.89,498.54999999999995" fill="#e7e8fb"/><rect x="356.11111111111114" y="427.33333333333337" width="71.22222222222223" height="71.22222222222223" fill="#fffafa"/><rect x="356.11" y="427.33" width="35.61" height="35.61" fill="#fdfafa"/><polygon points="356.11,427.33 391.72,462.94 356.11,462.94" fill="#e2eaf3"/><rect x="391.72" y="427.33" width="35.61" height="35.61" fill="#d9e6f1"/><polygon points="391.72,427.33 427.33000000000004,462.94 391.72,462.94" fill="#e6edf4"/><rect x="356.11" y="462.94" width="35.61" height="35.61" fill="#c4daec"/><polygon points="356.11,462.94 391.72,498.55 356.11,498.55" fill="#d9f0fb"/><rect x="391.72" y="462.94" width="35.61" height="35.61" fill="#f7f6f8"/><polygon points="427.33000000000004,462.94 427.33000000000004,498.55 391.72,498.55" fill="#90defd"/><rect x="427.33" y="427.33" width="71.22" height="71.22" fill="#c6ebfc"/><polygon points="498.54999999999995,427.33 498.54999999999995,498.54999999999995 427.33,498.54999999999995" fill="#ebebfb"/><rect x="498.5555555555556" y="427.33333333333337" width="71.22222222222223" height="71.22222222222223" fill="#fffafa"/><rect x="498.56" y="427.33" width="35.61" height="35.61" fill="#e6e7fb"/><polygon points="534.17,427.33 534.17,462.94 498.56,462.94" fill="#bad5e9"/><rect x="534.17" y="427.33" width="35.61" height="35.61" fill="#7cd8fe"/><polygon points="569.78,427.33 569.78,462.94 534.17,462.94" fill="#b3e7fc"/><rect x="498.56" y="462.94" width="35.61" height="35.61" fill="#b9e8fc"/><polygon points="498.56,462.94 534.17,462.94 534.17,498.55" fill="#c4cefd"/><rect x="534.17" y="462.94" width="35.61" height="35.61" fill="#cfd6fd"/><polygon points="569.78,462.94 569.78,498.55 534.17,498.55" fill="#ace5fc"/><rect x="569.7777777777778" y="427.33333333333337" width="71.22222222222223" height="71.22222222222223" fill="#fffafa"/><rect x="569.78" y="427.33" width="35.61" height="35.61" fill="#e3f3fb"/><polygon points="605.39,427.33 605.39,462.94 569.78,462.94" fill="#e4ebf3"/><rect x="605.39" y="427.33" width="35.61" height="35.61" fill="#ccd4fd"/><polygon points="605.39,427.33 641,427.33 605.39,462.94" fill="#76d7fe"/><rect x="569.78" y="462.94" width="35.61" height="35.61" fill="#bed7ea"/><polygon points="569.78,462.94 605.39,462.94 605.39,498.55" fill="#e6f4fb"/><rect x="605.39" y="462.94" width="35.61" height="35.61" fill="#c8dded"/><polygon points="605.39,462.94 641,462.94 605.39,498.55" fill="#9fe1fd"/><rect x="641" y="427.33" width="71.22" height="71.22" fill="#b8d4e9"/><polygon points="712.22,427.33 712.22,498.54999999999995 641,498.54999999999995" fill="#acbcff"/><rect x="712.22" y="427.33" width="71.22" height="71.22" fill="#a7e3fd"/><polygon points="712.22,427.33 783.44,427.33 783.44,498.54999999999995" fill="#caecfc"/><rect x="783.4444444444446" y="427.33333333333337" width="71.22222222222223" height="71.22222222222223" fill="#fffafa"/><rect x="783.44" y="427.33" width="35.61" height="35.61" fill="#94dffd"/><polygon points="783.44,427.33 819.0500000000001,427.33 783.44,462.94" fill="#e0e3fc"/><rect x="819.06" y="427.33" width="35.61" height="35.61" fill="#b2d0e7"/><polygon points="819.06,427.33 854.67,427.33 819.06,462.94" fill="#fcf9f9"/><rect x="783.44" y="462.94" width="35.61" height="35.61" fill="#eaf5fb"/><polygon points="783.44,462.94 819.0500000000001,462.94 819.0500000000001,498.55" fill="#e6f4fb"/><rect x="819.06" y="462.94" width="35.61" height="35.61" fill="#d9f0fb"/><polygon points="819.06,462.94 854.67,462.94 854.67,498.55" fill="#cddfee"/><rect x="854.67" y="427.33" width="71.22" height="71.22" fill="#ccdfee"/><polygon points="925.89,427.33 925.89,498.54999999999995 854.67,498.54999999999995" fill="#fdf9f9"/><rect x="925.89" y="427.33" width="71.22" height="71.22" fill="#b1c0ff"/><polygon points="997.11,427.33 997.11,498.54999999999995 925.89,498.54999999999995" fill="#73d6fe"/><rect x="997.11" y="427.33" width="71.22" height="71.22" fill="#cbd3fd"/><polygon points="997.11,427.33 1068.33,427.33 997.11,498.54999999999995" fill="#aecee6"/><rect x="1068.33" y="427.33" width="71.22" height="71.22" fill="#cdd5fd"/><polygon points="1068.33,427.33 1139.55,498.54999999999995 1068.33,498.54999999999995" fill="#faf7f9"/><rect x="0" y="498.56" width="71.22" height="71.22" fill="#d6e4f0"/><polygon points="0,498.56 71.22,569.78 0,569.78" fill="#d0eefb"/><rect x="71.22" y="498.56" width="71.22" height="71.22" fill="#8fddfd"/><polygon points="71.22,498.56 142.44,569.78 71.22,569.78" fill="#89dcfd"/><rect x="142.44" y="498.56" width="71.22" height="71.22" fill="#f5f5f8"/><polygon points="142.44,498.56 213.66,569.78 142.44,569.78" fill="#95dffd"/><rect x="213.66666666666669" y="498.5555555555556" width="71.22222222222223" height="71.22222222222223" fill="#fffafa"/><rect x="213.67" y="498.56" width="35.61" height="35.61" fill="#f8f8fa"/><polygon points="213.67,498.56 249.27999999999997,498.56 249.27999999999997,534.17" fill="#d4e3f0"/><rect x="249.28" y="498.56" width="35.61" height="35.61" fill="#b5c3fe"/><polygon points="249.28,498.56 284.89,498.56 249.28,534.17" fill="#def1fb"/><rect x="213.67" y="534.17" width="35.61" height="35.61" fill="#eaebfb"/><polygon points="249.27999999999997,534.17 249.27999999999997,569.78 213.67,569.78" fill="#faf9fa"/><rect x="249.28" y="534.17" width="35.61" height="35.61" fill="#bdd7ea"/><polygon points="249.28,534.17 284.89,569.78 249.28,569.78" fill="#dee8f2"/><rect x="284.8888888888889" y="498.5555555555556" width="71.22222222222223" height="71.22222222222223" fill="#fffafa"/><rect x="284.89" y="498.56" width="35.61" height="35.61" fill="#bcc8fe"/><polygon points="284.89,498.56 320.5,534.17 284.89,534.17" fill="#c8dded"/><rect x="320.5" y="498.56" width="35.61" height="35.61" fill="#eef1f6"/><polygon points="320.5,498.56 356.11,534.17 320.5,534.17" fill="#b1e6fc"/><rect x="284.89" y="534.17" width="35.61" height="35.61" fill="#dfe2fc"/><polygon points="284.89,534.17 320.5,534.17 320.5,569.78" fill="#b3c1fe"/><rect x="320.5" y="534.17" width="35.61" height="35.61" fill="#e0f2fb"/><polygon points="356.11,534.17 356.11,569.78 320.5,569.78" fill="#f7f8fa"/><rect x="356.11" y="498.56" width="71.22" height="71.22" fill="#ecf0f5"/><polygon points="356.11,498.56 427.33000000000004,498.56 356.11,569.78" fill="#e7edf4"/><rect x="427.33333333333337" y="498.5555555555556" width="71.22222222222223" height="71.22222222222223" fill="#fffafa"/><rect x="427.33" y="498.56" width="35.61" height="35.61" fill="#bfcbfe"/><polygon points="427.33,498.56 462.94,534.17 427.33,534.17" fill="#7dd9fe"/><rect x="462.94" y="498.56" width="35.61" height="35.61" fill="#f4f4f7"/><polygon points="462.94,498.56 498.55,534.17 462.94,534.17" fill="#bfcafe"/><rect x="427.33" y="534.17" width="35.61" height="35.61" fill="#d9f0fb"/><polygon points="427.33,534.17 462.94,534.17 462.94,569.78" fill="#a5e3fd"/><rect x="462.94" y="534.17" width="35.61" height="35.61" fill="#fbf7fa"/><polygon points="462.94,534.17 498.55,569.78 462.94,569.78" fill="#e1f2fb"/><rect x="498.56" y="498.56" width="71.22" height="71.22" fill="#eaeff5"/><polygon points="498.56,498.56 569.78,569.78 498.56,569.78" fill="#cddfee"/><rect x="569.78" y="498.56" width="71.22" height="71.22" fill="#aae4fc"/><polygon points="569.78,498.56 641,498.56 641,569.78" fill="#b0d0e7"/><rect x="641" y="498.5555555555556" width="71.22222222222223" height="71.22222222222223" fill="#fffafa"/><rect x="641" y="498.56" width="35.61" height="35.61" fill="#dde8f2"/><polygon points="641,498.56 676.61,498.56 676.61,534.17" fill="#fffafa"/><rect x="676.61" y="498.56" width="35.61" height="35.61" fill="#fcf8fa"/><polygon points="676.61,498.56 712.22,498.56 712.22,534.17" fill="#c0eafc"/><rect x="641" y="534.17" width="35.61" height="35.61" fill="#a9e4fc"/><polygon points="641,534.17 676.61,569.78 641,569.78" fill="#c1eafc"/><rect x="676.61" y="534.17" width="35.61" height="35.61" fill="#c8dced"/><polygon points="712.22,534.17 712.22,569.78 676.61,569.78" fill="#fbf7fa"/><rect x="712.2222222222223" y="498.5555555555556" width="71.22222222222223" height="71.22222222222223" fill="#fffafa"/><rect x="712.22" y="498.56" width="35.61" height="35.61" fill="#ebebfb"/><polygon points="712.22,498.56 747.83,498.56 712.22,534.17" fill="#c8d1fd"/><rect x="747.83" y="498.56" width="35.61" height="35.61" fill="#d5dbfc"/><polygon points="783.44,498.56 783.44,534.17 747.83,534.17" fill="#f4f4f7"/><rect x="712.22" y="534.17" width="35.61" height="35.61" fill="#c7dcec"/><polygon points="712.22,534.17 747.83,534.17 747.83,569.78" fill="#b8c5fe"/><rect x="747.83" y="534.17" width="35.61" height="35.61" fill="#d6dbfc"/><polygon points="747.83,534.17 783.44,569.78 747.83,569.78" fill="#d4dafd"/><rect x="783.4444444444446" y="498.5555555555556" width="71.22222222222223" height="71.22222222222223" fill="#fffafa"/><rect x="783.44" y="498.56" width="35.61" height="35.61" fill="#bbd6e9"/><polygon points="783.44,498.56 819.0500000000001,498.56 819.0500000000001,534.17" fill="#f1f0fb"/><rect x="819.06" y="498.56" width="35.61" height="35.61" fill="#e4ebf3"/><polygon points="854.67,498.56 854.67,534.17 819.06,534.17" fill="#8cddfd"/><rect x="783.44" y="534.17" width="35.61" height="35.61" fill="#fcf9f9"/><polygon points="783.44,534.17 819.0500000000001,534.17 819.0500000000001,569.78" fill="#f9f7f8"/><rect x="819.06" y="534.17" width="35.61" height="35.61" fill="#bae8fc"/><polygon points="819.06,534.17 854.67,534.17 854.67,569.78" fill="#d9e6f1"/><rect x="854.6666666666667" y="498.5555555555556" width="71.22222222222223" height="71.22222222222223" fill="#fffafa"/><rect x="854.67" y="498.56" width="35.61" height="35.61" fill="#fffafa"/><polygon points="854.67,498.56 890.28,534.17 854.67,534.17" fill="#bee9fc"/><rect x="890.28" y="498.56" width="35.61" height="35.61" fill="#dae6f1"/><polygon points="890.28,498.56 925.89,498.56 925.89,534.17" fill="#ccd4fd"/><rect x="854.67" y="534.17" width="35.61" height="35.61" fill="#c0d8eb"/><polygon points="854.67,534.17 890.28,534.17 890.28,569.78" fill="#f9f7f9"/><rect x="890.28" y="534.17" width="35.61" height="35.61" fill="#f7f4fa"/><polygon points="890.28,534.17 925.89,534.17 925.89,569.78" fill="#ededfb"/><rect x="925.8888888888889" y="498.5555555555556" width="71.22222222222223" height="71.22222222222223" fill="#fffafa"/><rect x="925.89" y="498.56" width="35.61" height="35.61" fill="#abe5fc"/><polygon points="925.89,498.56 961.5,534.17 925.89,534.17" fill="#f1f6fa"/><rect x="961.5" y="498.56" width="35.61" height="35.61" fill="#a2e2fd"/><polygon points="961.5,498.56 997.11,498.56 961.5,534.17" fill="#e3ebf3"/><rect x="925.89" y="534.17" width="35.61" height="35.61" fill="#77d7fe"/><polygon points="961.5,534.17 961.5,569.78 925.89,569.78" fill="#c8d1fd"/><rect x="961.5" y="534.17" width="35.61" height="35.61" fill="#e4f3fb"/><polygon points="961.5,534.17 997.11,569.78 961.5,569.78" fill="#d0e1ef"/><rect x="997.11" y="498.56" width="71.22" height="71.22" fill="#f3f1fb"/><polygon points="997.11,498.56 1068.33,498.56 1068.33,569.78" fill="#adbdff"/><rect x="1068.3333333333335" y="498.5555555555556" width="71.22222222222223" height="71.22222222222223" fill="#fffafa"/><rect x="1068.33" y="498.56" width="35.61" height="35.61" fill="#bae8fc"/><polygon points="1103.9399999999998,498.56 1103.9399999999998,534.17 1068.33,534.17" fill="#f6f5f8"/><rect x="1103.94" y="498.56" width="35.61" height="35.61" fill="#f8f5fa"/><polygon points="1139.55,498.56 1139.55,534.17 1103.94,534.17" fill="#9ce1fd"/><rect x="1068.33" y="534.17" width="35.61" height="35.61" fill="#cfeefb"/><polygon points="1068.33,534.17 1103.9399999999998,569.78 1068.33,569.78" fill="#b1d0e7"/><rect x="1103.94" y="534.17" width="35.61" height="35.61" fill="#e3f3fb"/><polygon points="1103.94,534.17 1139.55,534.17 1139.55,569.78" fill="#d7e4f0"/><rect x="0" y="569.78" width="71.22" height="71.22" fill="#eff1f6"/><polygon points="0,569.78 71.22,569.78 0,641" fill="#dde1fc"/><rect x="71.22" y="569.78" width="71.22" height="71.22" fill="#e5ecf4"/><polygon points="142.44,569.78 142.44,641 71.22,641" fill="#ace5fc"/><rect x="142.44444444444446" y="569.7777777777778" width="71.22222222222223" height="71.22222222222223" fill="#fffafa"/><rect x="142.44" y="569.78" width="35.61" height="35.61" fill="#e6e7fb"/><polygon points="142.44,569.78 178.05,569.78 142.44,605.39" fill="#d5e4f0"/><rect x="178.06" y="569.78" width="35.61" height="35.61" fill="#e3ebf3"/><polygon points="213.67000000000002,569.78 213.67000000000002,605.39 178.06,605.39" fill="#b4e7fc"/><rect x="142.44" y="605.39" width="35.61" height="35.61" fill="#8fdefd"/><polygon points="178.05,605.39 178.05,641 142.44,641" fill="#b5d2e8"/><rect x="178.06" y="605.39" width="35.61" height="35.61" fill="#e0e9f2"/><polygon points="178.06,605.39 213.67000000000002,605.39 178.06,641" fill="#d0e1ef"/><rect x="213.66666666666669" y="569.7777777777778" width="71.22222222222223" height="71.22222222222223" fill="#fffafa"/><rect x="213.67" y="569.78" width="35.61" height="35.61" fill="#c6ecfc"/><polygon points="213.67,569.78 249.27999999999997,569.78 213.67,605.39" fill="#c5dbec"/><rect x="249.28" y="569.78" width="35.61" height="35.61" fill="#e2e5fc"/><polygon points="249.28,569.78 284.89,569.78 284.89,605.39" fill="#dadefc"/><rect x="213.67" y="605.39" width="35.61" height="35.61" fill="#e1eaf3"/><polygon points="249.27999999999997,605.39 249.27999999999997,641 213.67,641" fill="#aebeff"/><rect x="249.28" y="605.39" width="35.61" height="35.61" fill="#f5f4f7"/><polygon points="284.89,605.39 284.89,641 249.28,641" fill="#dde8f2"/><rect x="284.8888888888889" y="569.7777777777778" width="71.22222222222223" height="71.22222222222223" fill="#fffafa"/><rect x="284.89" y="569.78" width="35.61" height="35.61" fill="#f6f8fa"/><polygon points="284.89,569.78 320.5,605.39 284.89,605.39" fill="#e1eaf3"/><rect x="320.5" y="569.78" width="35.61" height="35.61" fill="#e3f3fb"/><polygon points="356.11,569.78 356.11,605.39 320.5,605.39" fill="#c5cffd"/><rect x="284.89" y="605.39" width="35.61" height="35.61" fill="#d4effb"/><polygon points="284.89,605.39 320.5,641 284.89,641" fill="#fcf8fa"/><rect x="320.5" y="605.39" width="35.61" height="35.61" fill="#a4e3fd"/><polygon points="320.5,605.39 356.11,641 320.5,641" fill="#e3f3fb"/><rect x="356.11111111111114" y="569.7777777777778" width="71.22222222222223" height="71.22222222222223" fill="#fffafa"/><rect x="356.11" y="569.78" width="35.61" height="35.61" fill="#b2d1e7"/><polygon points="356.11,569.78 391.72,569.78 356.11,605.39" fill="#e9f4fb"/><rect x="391.72" y="569.78" width="35.61" height="35.61" fill="#dcf1fb"/><polygon points="391.72,569.78 427.33000000000004,605.39 391.72,605.39" fill="#e9eafb"/><rect x="356.11" y="605.39" width="35.61" height="35.61" fill="#adbdff"/><polygon points="356.11,605.39 391.72,641 356.11,641" fill="#8dddfd"/><rect x="391.72" y="605.39" width="35.61" height="35.61" fill="#f1f3f7"/><polygon points="391.72,605.39 427.33000000000004,605.39 427.33000000000004,641" fill="#eaeff5"/><rect x="427.33333333333337" y="569.7777777777778" width="71.22222222222223" height="71.22222222222223" fill="#fffafa"/><rect x="427.33" y="569.78" width="35.61" height="35.61" fill="#9ee1fd"/><polygon points="427.33,569.78 462.94,569.78 427.33,605.39" fill="#e4ecf3"/><rect x="462.94" y="569.78" width="35.61" height="35.61" fill="#ebf5fb"/><polygon points="462.94,569.78 498.55,569.78 462.94,605.39" fill="#e5e7fc"/><rect x="427.33" y="605.39" width="35.61" height="35.61" fill="#e2f3fb"/><polygon points="462.94,605.39 462.94,641 427.33,641" fill="#ccdfee"/><rect x="462.94" y="605.39" width="35.61" height="35.61" fill="#dde8f2"/><polygon points="498.55,605.39 498.55,641 462.94,641" fill="#aabaff"/><rect x="498.5555555555556" y="569.7777777777778" width="71.22222222222223" height="71.22222222222223" fill="#fffafa"/><rect x="498.56" y="569.78" width="35.61" height="35.61" fill="#a7e4fc"/><polygon points="534.17,569.78 534.17,605.39 498.56,605.39" fill="#d3d9fd"/><rect x="534.17" y="569.78" width="35.61" height="35.61" fill="#d6effb"/><polygon points="534.17,569.78 569.78,569.78 569.78,605.39" fill="#b9e8fc"/><rect x="498.56" y="605.39" width="35.61" height="35.61" fill="#ececfb"/><polygon points="498.56,605.39 534.17,605.39 498.56,641" fill="#dce7f1"/><rect x="534.17" y="605.39" width="35.61" height="35.61" fill="#fbf7fa"/><polygon points="534.17,605.39 569.78,605.39 569.78,641" fill="#e4e6fc"/><rect x="569.78" y="569.78" width="71.22" height="71.22" fill="#f4f7fa"/><polygon points="641,569.78 641,641 569.78,641" fill="#9ee1fd"/><rect x="641" y="569.78" width="71.22" height="71.22" fill="#bbc7fe"/><polygon points="641,569.78 712.22,569.78 641,641" fill="#c3daeb"/><rect x="712.22" y="569.78" width="71.22" height="71.22" fill="#ddf1fb"/><polygon points="712.22,569.78 783.44,569.78 783.44,641" fill="#fcf8f9"/><rect x="783.44" y="569.78" width="71.22" height="71.22" fill="#edf1f6"/><polygon points="854.6600000000001,569.78 854.6600000000001,641 783.44,641" fill="#aae4fc"/><rect x="854.6666666666667" y="569.7777777777778" width="71.22222222222223" height="71.22222222222223" fill="#fffafa"/><rect x="854.67" y="569.78" width="35.61" height="35.61" fill="#f9f8fa"/><polygon points="854.67,569.78 890.28,569.78 854.67,605.39" fill="#fffafa"/><rect x="890.28" y="569.78" width="35.61" height="35.61" fill="#a8e4fc"/><polygon points="925.89,569.78 925.89,605.39 890.28,605.39" fill="#f5f5f8"/><rect x="854.67" y="605.39" width="35.61" height="35.61" fill="#7ed9fe"/><polygon points="854.67,605.39 890.28,605.39 854.67,641" fill="#aebeff"/><rect x="890.28" y="605.39" width="35.61" height="35.61" fill="#d7e4f0"/><polygon points="925.89,605.39 925.89,641 890.28,641" fill="#b7d3e8"/><rect x="925.89" y="569.78" width="71.22" height="71.22" fill="#e1e4fc"/><polygon points="997.11,569.78 997.11,641 925.89,641" fill="#f6f5f8"/><rect x="997.11" y="569.78" width="71.22" height="71.22" fill="#abe5fc"/><polygon points="1068.33,569.78 1068.33,641 997.11,641" fill="#e0e9f2"/><rect x="1068.3333333333335" y="569.7777777777778" width="71.22222222222223" height="71.22222222222223" fill="#fffafa"/><rect x="1068.33" y="569.78" width="35.61" height="35.61" fill="#dde1fc"/><polygon points="1068.33,569.78 1103.9399999999998,605.39 1068.33,605.39" fill="#b1d0e7"/><rect x="1103.94" y="569.78" width="35.61" height="35.61" fill="#fcf9fa"/><polygon points="1103.94,569.78 1139.55,605.39 1103.94,605.39" fill="#f6f3fb"/><rect x="1068.33" y="605.39" width="35.61" height="35.61" fill="#fcf9f9"/><polygon points="1103.9399999999998,605.39 1103.9399999999998,641 1068.33,641" fill="#b6d3e8"/><rect x="1103.94" y="605.39" width="35.61" height="35.61" fill="#bed7ea"/><polygon points="1103.94,605.39 1139.55,605.39 1139.55,641" fill="#ebf5fb"/></g></svg>